<?xml version="1.0" encoding="utf-8"?>
<!-- Generator: Adobe Illustrator 25.4.1, SVG Export Plug-In . SVG Version: 6.00 Build 0)  -->
<svg version="1.1" id="Laag_1" xmlns="http://www.w3.org/2000/svg" xmlns:xlink="http://www.w3.org/1999/xlink" x="0px" y="0px"
	 viewBox="0 0 259.8 54.7" style="enable-background:new 0 0 259.8 54.7;" xml:space="preserve">
<style type="text/css">
	.st0{fill:#FFFFFF;}
	.st1{fill:#05C8F0;}
	.st2{fill:#FF00BC;}
</style>
<g>
	<g>
		<path class="st0" d="M243.9,31.7h-12v9V54h12c3.1,0,5.6-2.5,5.6-5.6V37.3C249.5,34.3,247,31.7,243.9,31.7z M245.1,48.2
			c0,0.8-0.6,1.4-1.4,1.4h-7.4V36.2h7.4c0.8,0,1.4,0.6,1.4,1.4V48.2z"/>
	</g>
	<g>
		<path class="st0" d="M202.1,31.7v16.4c0,0.8-0.6,1.4-1.4,1.4h-6c-0.8,0-1.4-0.6-1.4-1.4V31.7h-4.4v16.7c0,3.1,2.5,5.6,5.6,5.6h6.5
			c3.1,0,5.6-2.5,5.6-5.6V31.7H202.1z"/>
	</g>
	<g>
		<polygon class="st0" points="152,36.2 152,40.7 160.3,40.7 160.3,45.1 152,45.1 152,49.6 163,49.6 163,54 147.6,54 147.6,31.7 
			163,31.7 163,36.2 		"/>
	</g>
	<g>
		<polygon class="st0" points="152,5.3 152,9.8 160.3,9.8 160.3,14.2 152,14.2 152,18.7 163,18.7 163,23.2 147.6,23.2 147.6,0.9 
			163,0.9 163,5.3 		"/>
	</g>
	<g>
		<polygon class="st0" points="173.1,5.3 173.1,9.8 181.4,9.8 181.4,14.2 173.1,14.2 173.1,18.7 184.1,18.7 184.1,23.2 168.7,23.2 
			168.7,0.9 184.1,0.9 184.1,5.3 		"/>
	</g>
	<g>
		<path class="st0" d="M141.9,6.5c0-3.1-2.5-5.6-5.6-5.6h-12v22.3h12c3.1,0,5.6-2.5,5.6-5.6v-2.3c0-1.2-0.4-2.3-1-3.2
			c0.6-0.9,1-2,1-3.2V6.5z M128.8,5.3h7.3c0.8,0,1.4,0.6,1.4,1.4v1.8c0,0.8-0.6,1.4-1.4,1.4h-7.3V5.3z M137.5,17.3
			c0,0.8-0.6,1.4-1.4,1.4h-7.3v-4.6h7.3c0.8,0,1.4,0.6,1.4,1.4V17.3z"/>
	</g>
	<g>
		<path class="st0" d="M128.8,37.6c0-0.8,0.6-1.4,1.4-1.4h11.5v-4.4H130c-3.1,0-5.6,2.5-5.6,5.6v11.1c0,3.1,2.5,5.6,5.6,5.6h11.8
			V40.7H133v4.4h4.3v4.5h-7.1c-0.8,0-1.4-0.6-1.4-1.4V37.6z"/>
	</g>
	<g>
		<path class="st0" d="M222.4,0.9h-12v9v13.3h12c3.1,0,5.6-2.5,5.6-5.6V6.5C228,3.4,225.5,0.9,222.4,0.9z M223.5,17.3
			c0,0.8-0.6,1.4-1.4,1.4h-7.4V5.3h7.4c0.8,0,1.4,0.6,1.4,1.4V17.3z"/>
	</g>
	<g>
		<polygon class="st0" points="211.4,36.2 216.8,36.2 216.8,49.6 211.4,49.6 211.4,54 226.7,54 226.7,49.6 221.3,49.6 221.3,36.2 
			226.7,36.2 226.7,31.7 211.4,31.7 		"/>
	</g>
	<g>
		<polygon class="st0" points="184.2,43 184.2,54 167.7,54 167.7,31.7 172.1,31.7 172.1,49.6 179.7,49.6 179.7,43 		"/>
	</g>
	<g>
		<polygon class="st0" points="205.4,12.1 205.4,23.2 188.9,23.2 188.9,0.9 193.3,0.9 193.3,18.7 200.9,18.7 200.9,12.1 		"/>
	</g>
	<g>
		<path class="st0" d="M251.5,9.8h-9.9V6.7c0-0.8,0.6-1.4,1.4-1.4h6.5V0.9h-6.8c-3.1,0-5.6,2.5-5.6,5.6v4.1c-1.7,1-2.8,2.8-2.8,4.9
			v2.2c0,2.7,1.9,4.9,4.4,5.5c0.4,0.1,0.8,0.1,1.2,0.1h9.6v-8.9h2L251.5,9.8L251.5,9.8z M245.1,14.2v4.5h-4.9
			c-0.8,0-1.4-0.6-1.4-1.4v-1.7c0-0.8,0.6-1.4,1.4-1.4h4.6l0,0C244.8,14.2,245.1,14.2,245.1,14.2z"/>
	</g>
</g>
<g>
	<g>
		<path class="st1" d="M87.3,15.9c6.4,0,11.5,5.2,11.5,11.5S93.7,39,87.3,39c-6.4,0-11.5-5.2-11.5-11.5S81,15.9,87.3,15.9
			 M87.3,11.5c-8.8,0-16,7.1-16,16s7.1,16,16,16s16-7.1,16-16S96.2,11.5,87.3,11.5L87.3,11.5z"/>
	</g>
</g>
<g>
	<g>
		<path class="st2" d="M0,0.9V54h53.2V0.9H0z M4.4,49.6V5.3h44.3v44.3H4.4z"/>
	</g>
</g>
<g>
	<rect x="22.2" y="23" class="st1" width="8.9" height="8.9"/>
</g>
<g>
	<path class="st0" d="M11.1,11.9v31h31v-31C42.1,11.9,11.1,11.9,11.1,11.9z M15.5,38.5V16.4h22.2v22.2L15.5,38.5L15.5,38.5z"/>
</g>
<g>
	<g>
		<path class="st2" d="M87.3,27.5L87.3,27.5L87.3,27.5 M87.3,23c-2.4,0-4.4,2-4.4,4.4s2,4.4,4.4,4.4s4.4-2,4.4-4.4S89.8,23,87.3,23
			L87.3,23z"/>
	</g>
</g>
<g>
	<g>
		<path class="st0" d="M87.3,4.9c12.5,0,22.6,10.1,22.6,22.6S99.8,50.1,87.3,50.1S64.7,39.9,64.7,27.5S74.9,4.9,87.3,4.9 M87.3,0.4
			c-14.9,0-27,12.1-27,27s12.1,27,27,27s27-12.1,27-27S102.3,0.4,87.3,0.4L87.3,0.4z"/>
	</g>
</g>
</svg>
